<?xml version="1.0" encoding="UTF-8"?>
<svg width="88px" height="88px" viewBox="0 0 88 88" version="1.1" xmlns="http://www.w3.org/2000/svg" xmlns:xlink="http://www.w3.org/1999/xlink">
    <!-- Generator: sketchtool 41 (35326) - http://www.bohemiancoding.com/sketch -->
    <title>416BA04C-D17D-4017-A3A1-D28BBAA48966</title>
    <desc>Created with sketchtool.</desc>
    <defs></defs>
    <g id="Main" stroke="none" stroke-width="1" fill="none" fill-rule="evenodd">
        <g id="Logo" transform="translate(-8.000000, -8.000000)">
            <g id="logo" transform="translate(8.000000, 8.000000)">
                <polygon id="shape" fill="#00B7BD" opacity="0.9" points="0 88 88 88 88 0 0 0"></polygon>
                <path d="M49.6521143,72.0886724 L52.5048229,63.2155918 L55.18656,72.0886724 L49.6521143,72.0886724 L49.6521143,72.0886724 Z M37.7861943,74.0772091 L33.7394514,74.0772091 L33.7394514,69.131653 L37.4434971,69.131653 C38.7821029,69.131653 39.8408686,69.8827263 39.8408686,71.729947 C39.8408686,73.388325 38.7514286,74.0772091 37.7861943,74.0772091 L37.7861943,74.0772091 Z M33.7394514,61.1502034 L36.9451657,61.1502034 C38.6890743,61.1502034 38.9379886,62.5899081 38.9379886,63.2155918 C38.9379886,64.6558021 38.3463771,65.5006648 37.3818971,65.5006648 L33.7394514,65.5006648 L33.7394514,61.1502034 L33.7394514,61.1502034 Z M17.5308571,72.0886724 L20.3833143,63.2155918 L23.0653029,72.0886724 L17.5308571,72.0886724 L17.5308571,72.0886724 Z M69.9104686,67.1598011 L76.0430629,57.4881206 L70.9687314,57.4881206 L67.4821714,63.1218025 L64.2447771,57.4881206 L58.7968229,57.4881206 L64.71168,67.2851907 L60.5289143,73.7880042 L54.5914286,57.4881206 L50.2017371,57.4881206 L44.6466743,72.2974864 C44.6579886,72.1131941 44.6655314,71.9253626 44.6655314,71.729947 C44.6655314,68.8497793 43.01616,67.3794857 40.5260114,67.1284538 C42.3619429,66.6584957 43.7319771,65.313086 43.7319771,63.1844972 C43.7319771,58.8340359 40.61904,57.4881206 36.9451657,57.4881206 L29.0075657,57.4881206 L29.0075657,75.4347533 L22.46992,57.4881206 L18.0802286,57.4881206 L10.4838171,77.7392919 L15.7142857,77.7392919 L16.3757943,75.6812348 L24.1512229,75.6812348 L24.7730057,77.7392919 L37.9730057,77.7392919 C40.0676571,77.7392919 42.0602286,77.2407673 43.3181257,75.8392357 L42.6053257,77.7392919 L47.8355429,77.7392919 L48.4973029,75.6812348 L56.27248,75.6812348 L56.8942629,77.7392919 L63.0615543,77.7392919 L67.2325029,71.103252 L70.9380571,77.7392919 L76.5099657,77.7392919 L69.9104686,67.1598011 L69.9104686,67.1598011 Z" id="shape" fill="#FFFFFF"></path>
                <path d="M52.4656,51.0742933 C53.8077257,51.0742933 55.07216,51.5857107 56.0396571,52.5175371 L57.3905829,51.1567066 C56.0645486,49.8631212 54.3203886,49.1519905 52.4656,49.1519905 C50.6077943,49.1519905 48.8618743,49.8631212 47.5353371,51.1567066 L48.8882743,52.5157675 C49.8575314,51.5852051 51.1229714,51.0742933 52.4656,51.0742933" id="shape" fill="#FFFFFF"></path>
                <path d="M60.4273371,48.0475007 C58.29296,45.9419168 55.4784686,44.7818106 52.4894857,44.7780186 L52.4309029,44.7780186 L52.3858971,44.7780186 L52.3858971,44.7802938 L52.3856457,44.7780186 C49.4210514,44.7936923 46.6271771,45.9525345 44.5008457,48.0475007 L45.8542857,49.4050448 C47.6250971,47.6652648 49.96112,46.7056302 52.44624,46.6993102 L52.5018057,46.6993102 C54.9778743,46.7111918 57.3066057,47.6710792 59.0731429,49.4050448 L60.4273371,48.0475007" id="shape" fill="#FFFFFF"></path>
            </g>
        </g>
    </g>
</svg>
